<?xml version="1.0" encoding="UTF-8" standalone="no"?><!-- Generator: Gravit.io --><svg xmlns="http://www.w3.org/2000/svg" xmlns:xlink="http://www.w3.org/1999/xlink" style="isolation:isolate" viewBox="838.766 485.634 24.162 22.277" width="24.162pt" height="22.277pt"><path d=" M 840.455 486.438 C 839.967 486.438 839.57 486.835 839.57 487.323 L 839.57 498.536 C 839.57 499.024 839.967 499.42 840.455 499.42 L 842.531 499.42 C 842.716 499.42 842.876 499.545 842.921 499.725 L 843.953 503.854 L 847.491 499.566 C 847.567 499.474 847.68 499.42 847.801 499.42 L 855.83 499.42 C 856.318 499.42 856.715 499.024 856.715 498.536 L 856.715 487.323 C 856.715 486.835 856.318 486.438 855.83 486.438 L 840.455 486.438 Z  M 851.3 503.5 C 851.3 503.738 851.494 503.932 851.732 503.932 L 857.109 503.932 C 857.229 503.932 857.342 503.985 857.418 504.078 L 859.531 506.639 L 860.132 504.237 C 860.177 504.057 860.337 503.932 860.522 503.932 L 861.692 503.932 C 861.931 503.932 862.124 503.738 862.124 503.5 L 862.124 496.236 C 862.124 495.998 861.931 495.804 861.692 495.804 L 857.518 495.804 L 857.518 498.536 C 857.518 499.467 856.761 500.224 855.83 500.224 L 851.3 500.224 L 851.3 503.5 Z  M 859.728 507.911 C 859.608 507.911 859.495 507.858 859.418 507.765 L 856.919 504.736 L 851.732 504.736 C 851.05 504.736 850.496 504.181 850.496 503.5 L 850.496 500.224 L 847.99 500.224 L 844.067 504.98 C 843.99 505.073 843.877 505.126 843.756 505.126 C 843.519 505.083 843.404 504.97 843.367 504.822 L 842.217 500.224 L 840.455 500.224 C 839.524 500.224 838.766 499.467 838.766 498.536 L 838.766 487.323 C 838.766 486.392 839.524 485.634 840.455 485.634 L 855.83 485.634 C 856.761 485.634 857.519 486.392 857.519 487.323 L 857.519 495 L 861.692 495 C 862.374 495 862.928 495.554 862.928 496.236 L 862.928 503.5 C 862.928 504.181 862.374 504.736 861.692 504.736 L 860.836 504.736 L 860.119 507.607 C 860.081 507.755 859.966 507.868 859.817 507.901 L 859.728 507.911 Z  M 848.142 494.76 C 848.207 494.76 848.271 494.776 848.329 494.806 L 849.993 495.681 L 849.675 493.828 C 849.652 493.698 849.696 493.565 849.79 493.473 L 851.136 492.161 L 849.277 491.89 C 849.145 491.871 849.032 491.789 848.974 491.671 L 848.142 489.985 L 847.31 491.671 C 847.251 491.789 847.139 491.871 847.008 491.89 L 845.148 492.161 L 846.494 493.473 C 846.588 493.565 846.631 493.698 846.609 493.828 L 846.291 495.681 L 847.955 494.806 C 848.013 494.776 848.077 494.76 848.142 494.76 Z  M 850.526 496.818 C 850.461 496.818 850.396 496.802 850.339 496.771 L 848.142 495.616 L 845.944 496.771 C 845.887 496.802 845.823 496.818 845.758 496.818 C 845.672 496.818 845.59 496.791 845.521 496.741 C 845.396 496.65 845.335 496.5 845.361 496.348 L 845.781 493.901 L 844.003 492.168 C 843.894 492.062 843.854 491.9 843.901 491.755 C 843.948 491.612 844.076 491.504 844.225 491.482 L 846.683 491.125 L 847.782 488.899 C 847.85 488.761 847.988 488.675 848.142 488.675 C 848.296 488.675 848.434 488.761 848.502 488.899 L 849.601 491.125 L 852.058 491.482 C 852.208 491.504 852.335 491.611 852.383 491.756 C 852.43 491.902 852.392 492.06 852.281 492.168 L 850.503 493.901 L 850.923 496.348 C 850.949 496.5 850.888 496.65 850.763 496.74 C 850.693 496.791 850.612 496.818 850.526 496.818 Z " fill-rule="evenodd" fill="rgb(202,50,51)"/></svg>